<svg width="71" height="96" xmlns="http://www.w3.org/2000/svg" xmlns:xlink="http://www.w3.org/1999/xlink" xml:space="preserve" overflow="hidden"><defs><clipPath id="clip0"><rect x="183" y="466" width="71" height="96"/></clipPath></defs><g clip-path="url(#clip0)" transform="translate(-183 -466)"><path d="M0 48 35.2868 96 70.5736 48 35.2868 0" fill="#0454A4" transform="matrix(1.00604 0 0 1 183 466)"/><path d="M31.577 20.6266C30.3816 24.0545 28.255 26.9041 25.7014 28.5611L25.1907 28.9116 25.1907 33.1039 29.7364 33.1039 29.7409 66.1954C29.7312 69.0994 26.8841 69.9432 25.1163 70.1954L25.1163 76.8186 44.5178 76.8186 44.5178 70.1954C42.7655 69.9909 39.8461 69.0552 39.9132 66.1954L39.9132 20.1054 31.7643 20.1054" fill="#D3242C" transform="matrix(1.00604 0 0 1 183 466)"/><path d="M35.0866 22.5934C34.5662 22.5934 34.1605 22.7372 33.8694 23.0249 33.5783 23.3111 33.4327 23.6885 33.4327 24.157 33.4327 24.6485 33.5769 25.0341 33.8653 25.3136 34.1537 25.5918 34.5528 25.7308 35.0625 25.7308 35.2824 25.7308 35.5031 25.7052 35.7244 25.6539 35.9457 25.6012 36.1235 25.5486 36.2576 25.4959L36.2576 24.0072 34.8754 24.0072 34.8754 24.5763 35.4729 24.5763 35.4729 25.1678C35.4434 25.1705 35.4105 25.1725 35.3743 25.1739 35.3394 25.1752 35.3072 25.1759 35.2777 25.1759 34.9343 25.1759 34.6748 25.0874 34.4991 24.9105 34.3234 24.7336 34.2355 24.4784 34.2355 24.1449 34.2355 23.9815 34.2597 23.8377 34.308 23.7134 34.3576 23.5879 34.4247 23.4846 34.5092 23.4035 34.5977 23.3198 34.6976 23.2577 34.809 23.2172 34.9203 23.1767 35.0443 23.1565 35.1811 23.1565 35.2978 23.1565 35.4079 23.172 35.5112 23.203 35.6158 23.2341 35.7069 23.2712 35.7847 23.3145 35.8518 23.3509 35.9216 23.3955 35.9941 23.4481 36.0665 23.4995 36.1214 23.5392 36.159 23.5676L36.2455 23.5676 36.2455 22.8608C36.0269 22.7541 35.8284 22.6832 35.65 22.6481 35.4716 22.6117 35.2838 22.5934 35.0866 22.5934ZM33.5564 27.4966 33.5564 29.4164C33.5564 29.7865 33.6688 30.0705 33.8935 30.2684 34.1196 30.4662 34.4527 30.5651 34.8927 30.5651 35.3328 30.5651 35.666 30.4662 35.8921 30.2684 36.1182 30.0705 36.2312 29.7859 36.2312 29.4145L36.2312 27.4966 35.4519 27.4966 35.4519 29.3721C35.4519 29.5888 35.4069 29.7462 35.3167 29.8445 35.2279 29.9427 35.0865 29.9918 34.8927 29.9918 34.6963 29.9918 34.5543 29.9407 34.4668 29.8384 34.3794 29.7361 34.3356 29.5807 34.3356 29.3721L34.3356 27.4966ZM34.4566 32.3314 33.3462 35.3373 34.1275 35.3373 34.3354 34.7297 35.4497 34.7297 35.6576 35.3373 36.4591 35.3373 35.3488 32.3314ZM34.8926 33.1006 35.262 34.1785 34.5231 34.1785ZM33.5564 37.1599 33.5564 40.1658 34.6162 40.1658C34.8557 40.1658 35.063 40.1483 35.238 40.1133 35.4129 40.0783 35.5737 40.0164 35.7204 39.9276 35.9155 39.8091 36.0771 39.6396 36.205 39.4189 36.3328 39.1968 36.3967 38.9458 36.3967 38.6659 36.3967 38.3752 36.3368 38.1228 36.217 37.9089 36.0986 37.6935 35.9357 37.5226 35.7285 37.3961 35.6074 37.3208 35.458 37.2628 35.2804 37.2225 35.1027 37.1807 34.8914 37.1599 34.6465 37.1599ZM34.3315 37.7211 34.5273 37.7211C34.6942 37.7211 34.8187 37.7285 34.9008 37.7433 34.9843 37.7568 35.0658 37.7829 35.1452 37.822 35.3013 37.9014 35.415 38.0118 35.4863 38.1531 35.559 38.2931 35.5953 38.4619 35.5953 38.6598 35.5953 38.859 35.5623 39.0265 35.4963 39.1624 35.4304 39.297 35.3268 39.4047 35.1855 39.4855 35.1034 39.5299 35.0193 39.5608 34.9332 39.5783 34.847 39.5945 34.7117 39.6025 34.5273 39.6025L34.3315 39.6025ZM34.4534 41.9916 33.3432 44.9975 34.1243 44.9975 34.3324 44.3899 35.4466 44.3899 35.6546 44.9975 36.4561 44.9975 35.3457 41.9916ZM34.8895 42.7608 35.2589 43.8387 34.5201 43.8387ZM33.9582 46.8202 33.9582 49.8261 36.1263 49.8261 36.1263 49.2447 34.7333 49.2447 34.7333 46.8202ZM35.142 51.5772C34.9132 51.5772 34.702 51.6135 34.5082 51.6862 34.3158 51.7589 34.1542 51.8618 34.0237 51.995 33.8877 52.1336 33.7841 52.2999 33.7128 52.4937 33.6415 52.6874 33.6059 52.9034 33.6059 53.1416 33.6059 53.3974 33.6428 53.6228 33.7168 53.818 33.7922 54.0131 33.8979 54.176 34.0338 54.3065 34.1697 54.437 34.3319 54.5353 34.5203 54.6012 34.7101 54.6672 34.9167 54.7001 35.1401 54.7001 35.2908 54.7001 35.4092 54.6927 35.4954 54.6779 35.5815 54.6631 35.6737 54.6416 35.7719 54.6134 35.8473 54.5918 35.9193 54.5663 35.9879 54.5367 36.0565 54.5071 36.1285 54.4754 36.2039 54.4418L36.2039 53.723 36.1231 53.723C36.0868 53.7553 36.0404 53.7937 35.9839 53.8381 35.9274 53.8825 35.8661 53.9243 35.8002 53.9633 35.7221 54.0118 35.6366 54.0501 35.5438 54.0784 35.4523 54.1067 35.3594 54.1208 35.2652 54.1208 35.1669 54.1208 35.0673 54.1053 34.9664 54.0744 34.8654 54.0421 34.774 53.9888 34.6919 53.9148 34.6111 53.8421 34.5438 53.7426 34.49 53.6161 34.4375 53.4896 34.4113 53.3321 34.4113 53.1437 34.4113 52.9634 34.4355 52.81 34.484 52.6835 34.5338 52.557 34.5983 52.4553 34.6777 52.3786 34.7612 52.2992 34.8521 52.2427 34.9503 52.209 35.0486 52.174 35.1522 52.1565 35.2612 52.1565 35.3594 52.1565 35.4516 52.1714 35.5377 52.201 35.6239 52.2306 35.704 52.267 35.778 52.31 35.8507 52.3531 35.9152 52.3967 35.9717 52.4411 36.0296 52.4856 36.0775 52.5239 36.1151 52.5562L36.2039 52.5562 36.2039 51.8275C36.1487 51.8006 36.0841 51.7716 36.0101 51.7407 35.9374 51.7084 35.8561 51.6795 35.7659 51.6539 35.6798 51.631 35.5855 51.6129 35.4832 51.5994 35.3822 51.5846 35.2685 51.5772 35.142 51.5772ZM34.4503 56.4804 33.34 59.4863 34.1213 59.4863 34.3292 58.8787 35.4436 58.8787 35.6515 59.4863 36.4529 59.4863 35.3427 56.4804ZM34.8863 57.2496 35.2559 58.3275 34.5169 58.3275ZM33.5255 61.3027 33.5255 64.3086 34.236 64.3086 34.236 62.2454 35.5119 64.3086 36.2588 64.3086 36.2588 61.3027 35.5482 61.3027 35.5482 63.0246 34.4521 61.3027ZM34.4503 66.1313 33.34 69.1372 34.1213 69.1372 34.3292 68.5295 35.4436 68.5295 35.6515 69.1372 36.4529 69.1372 35.3427 66.1313ZM34.8863 66.9004 35.2559 67.9784 34.5169 67.9784ZM33.9581 70.9599 33.9581 73.9658 36.1262 73.9658 36.1262 73.3844 34.7334 73.3844 34.7334 70.9599M34.8961 8.24188 34.0279 10.9891 31.1876 10.9891 33.476 12.6512 32.6202 15.324 34.8961 13.6806 37.1845 15.324 36.3224 12.6512 38.6233 10.9891 35.7924 10.9891 34.8961 8.24188ZM50.6977 30.1395 49.8605 32.8372 47.0078 32.8372 49.3023 34.5116 48.4279 37.2527 50.6977 35.5349 53.0914 37.2465 52.124 34.5116 54.4248 32.8372 51.5969 32.8372 50.6977 30.1395ZM16.2977 38.7845 15.4419 41.5194 12.583 41.5194 14.8837 43.1938 13.9969 45.8915 16.2977 44.2294 18.6047 45.8915 17.7364 43.1938 20.0434 41.5194 17.1783 41.5194 16.2977 38.7845ZM47.907 45.9535 47.0698 48.6512 44.2481 48.6512 46.5116 50.3256 45.6434 52.9922 47.907 51.3488 50.2015 52.9922 49.3333 50.3256 51.6279 48.6512 48.8062 48.6512 47.907 45.9535ZM34.8899 79.7519 34.0155 82.4496 31.2248 82.4496 33.4945 84.1302 32.6202 86.8217 34.8899 85.1163 37.2093 86.8217 36.3101 84.093 38.6047 82.4496 35.7829 82.4496 34.8899 79.7519Z" fill="#FFFFFF" transform="matrix(1.00604 0 0 1 183 466)"/></g></svg>